# xmcd CD database file
#
# Track frame offsets:
#	150
#	22617
#	46465
#	71590
#	91812
#	105122
#	119650
#	141960
#	153442
#	188210
#	201630
#	230895
#	260420
#
# Disc length: 3706 seconds
#
# Revision: 0
# Processed by: cddbd v1.5.2PL0 Copyright (c) Steve Scherf et al.
# Submitted via: CDex 1.51
#
DISCID=b40e780d
DTITLE=Various Artist - Trombone, Pilier Des Grands Orchestres
DYEAR=1900
DGENRE=Jazz
TTITLE0=Bennie Green Et Son Quintet - Stardust
TTITLE1=J. J. Johnson and Al Grey - Things Ain't What Thet Used To Be
TTITLE2=Frank Rosolino - Love For Sale
TTITLE3=Bob Brookmeyer - Star Eyes
TTITLE4=Matthew Gee and The Matthew Gee All-Stars - Sweet Georgia Brown
TTITLE5=J.J. Johnson - Misty
TTITLE6=Jimmy Knepper Quintet with Charlie Mingus - The Jumpin' Blues (Jump the Blues Away)
TTITLE7=Bob Enevoldsen and Harry Babasin Quintet - Skylark
TTITLE8=Billy Byers and Hal McKusick - Con Alma
TTITLE9=Al Grey, Count Basie and Roy Eldridge - Makin' Whoopee
TTITLE10=Stu Williamson and The Howard Rumsey's Lighthouse All-Stars - Long Ago (And Far Away)
TTITLE11=Curtis Fuller - What Is This Thing Called Love?
TTITLE12=Julian Priester - Just Friends
EXTD=
EXTT0=
EXTT1=
EXTT2=
EXTT3=
EXTT4=
EXTT5=
EXTT6=
EXTT7=
EXTT8=
EXTT9=
EXTT10=
EXTT11=
EXTT12=
PLAYORDER=
